<?xml version="1.0" standalone="no"?>
<!DOCTYPE svg PUBLIC "-//W3C//DTD SVG 20010904//EN"
 "http://www.w3.org/TR/2001/REC-SVG-20010904/DTD/svg10.dtd">
<svg version="1.0" xmlns="http://www.w3.org/2000/svg"
 width="16.000000pt" height="16.000000pt" viewBox="0 0 16.000000 16.000000"
 preserveAspectRatio="xMidYMid meet">
<metadata>
Created by potrace 1.11, written by Peter Selinger 2001-2013
</metadata>
<g transform="translate(0.000000,16.000000) scale(0.003125,-0.003125)"
fill="#000000" stroke="none">
<path d="M0 2560 l0 -2560 2560 0 2560 0 0 2560 0 2560 -2560 0 -2560 0 0
-2560z m3058 1160 l493 -980 -365 0 -366 0 265 -530 265 -530 -320 0 c-250 0
-320 -3 -320 -12 1 -7 77 -179 169 -383 l169 -370 -169 -3 -169 -2 0 -225 0
-225 -150 0 -150 0 0 225 0 225 -174 2 -174 3 173 380 172 380 -318 3 -319 2
265 530 265 530 -366 0 -365 0 493 980 c271 539 495 980 498 980 3 0 227 -441
498 -980z"/>
</g>
</svg>
