<?xml version="1.0" standalone="no"?>
<!DOCTYPE svg PUBLIC "-//W3C//DTD SVG 20010904//EN"
 "http://www.w3.org/TR/2001/REC-SVG-20010904/DTD/svg10.dtd">
<svg version="1.0" xmlns="http://www.w3.org/2000/svg"
 width="16.000000pt" height="16.000000pt" viewBox="0 0 16.000000 16.000000"
 preserveAspectRatio="xMidYMid meet">
<metadata>
Created by potrace 1.11, written by Peter Selinger 2001-2013
</metadata>
<g transform="translate(0.000000,16.000000) scale(0.005333,-0.005333)"
fill="#000000" stroke="none">
<path d="M1840 2839 c-323 -118 -412 -147 -437 -143 -28 5 -33 3 -33 -13 0
-14 -44 -50 -152 -125 -84 -58 -171 -113 -193 -123 -30 -12 -89 -18 -238 -24
-109 -5 -200 -10 -202 -13 -6 -5 41 -2071 51 -2254 l6 -111 246 -7 c136 -3
318 -9 405 -13 l157 -6 0 119 c0 65 3 177 7 247 l6 129 231 -3 231 -3 5 209 5
210 251 3 250 2 -4 250 -5 249 242 -6 241 -6 0 241 0 242 -235 0 -235 0 0 510
0 510 -41 26 c-46 28 -113 54 -138 53 -9 0 -198 -68 -421 -150z m495 74 l55
-27 0 -523 0 -523 235 0 235 0 0 -192 0 -191 -240 7 -240 7 0 -106 c0 -78 -3
-106 -12 -103 -6 2 -16 11 -20 19 -5 8 -60 180 -122 384 l-112 369 -104 22
c-58 12 -117 27 -132 33 -20 8 -29 7 -38 -5 -7 -7 -21 -14 -31 -14 -11 0 -19
-4 -19 -10 0 -6 -9 -6 -24 0 -17 6 -29 5 -42 -4 -16 -12 -16 -14 8 -30 45 -29
136 -56 190 -56 87 0 89 15 7 34 -41 10 -87 24 -104 32 -35 17 -26 15 99 -18
51 -13 94 -18 121 -15 l41 6 -98 -332 c-54 -183 -103 -349 -108 -369 -8 -27
-16 -38 -30 -38 -33 0 -31 -17 4 -48 45 -39 108 -52 260 -52 132 0 212 16 247
51 19 19 19 18 19 -78 0 -54 3 -115 6 -135 l7 -38 -254 -2 -254 -3 -3 -207 -2
-208 -234 0 -233 0 -6 -167 c-4 -91 -7 -202 -7 -246 l0 -79 -127 6 c-71 3
-230 8 -355 12 l-227 6 -5 62 c-4 51 -27 958 -26 1065 l0 34 24 -22 c41 -39
109 -53 252 -53 155 0 231 17 264 60 22 27 22 27 1 30 -11 2 -22 11 -25 20
-30 100 -218 715 -222 726 -5 13 -2 14 26 5 18 -7 54 -9 83 -6 58 7 197 47
197 56 0 4 -15 12 -34 19 -28 10 -47 9 -117 -7 -46 -11 -105 -23 -132 -27
l-47 -6 -25 -82 c-14 -44 -65 -215 -113 -380 -62 -209 -94 -301 -106 -308 -10
-5 -20 -7 -23 -5 -11 12 -33 1081 -22 1088 6 3 86 9 177 11 209 7 222 11 430
156 l158 110 425 155 c233 85 430 156 436 156 7 1 37 -11 68 -26z m-1412
-1624 c-9 -8 -203 -17 -203 -9 0 3 46 162 102 354 l103 349 3 -343 c1 -189 -1
-347 -5 -351z m137 328 c57 -185 101 -339 98 -342 -2 -3 -51 -2 -109 3 l-104
7 -2 350 c-2 200 1 344 6 335 5 -8 55 -167 111 -353z m1036 -324 c-2 -3 -50
-8 -105 -12 -80 -5 -101 -4 -101 7 0 12 132 463 183 627 l22 70 3 -344 c1
-189 0 -346 -2 -348z m129 335 c58 -190 105 -349 105 -352 0 -5 -160 2 -197
10 l-23 4 0 347 c0 190 2 344 5 342 2 -3 52 -161 110 -351z"/>
<path d="M1495 2305 c-15 -36 -27 -76 -27 -90 0 -30 39 -95 57 -95 18 0 65 68
65 94 0 18 -46 132 -60 149 -4 4 -19 -22 -35 -58z"/>
<path d="M1357 2175 c-21 -8 -60 -26 -87 -41 -63 -34 -53 -54 26 -54 38 0 53
-4 52 -12 -2 -8 9 -14 25 -16 15 -2 27 -7 27 -12 0 -11 57 -30 92 -30 37 0 33
20 -8 39 -38 19 -44 28 -44 78 0 31 -5 45 -19 53 -11 5 -21 10 -23 9 -2 0 -20
-7 -41 -14z"/>
<path d="M1626 2169 c-9 -13 -13 -32 -10 -46 8 -30 -19 -71 -48 -75 -13 -2
-24 -11 -26 -22 -4 -17 0 -18 44 -12 26 3 55 13 64 21 9 8 24 15 34 15 9 0 19
7 22 15 4 10 21 15 53 15 51 0 82 13 66 29 -15 14 -127 69 -156 76 -21 5 -30
2 -43 -16z"/>
<path d="M1509 2097 c6 -8 8 -16 5 -20 -3 -3 -3 -15 1 -26 9 -29 28 -15 22 15
-3 16 2 28 12 34 12 7 8 9 -18 10 -27 0 -31 -3 -22 -13z"/>
<path d="M1263 2049 c-23 -11 -81 -30 -130 -43 -77 -21 -85 -25 -60 -31 16 -4
59 -5 95 -2 61 5 64 4 37 -8 l-30 -12 29 -8 c37 -10 106 8 166 42 42 25 43 27
22 36 -17 8 -35 4 -83 -17 -33 -15 -62 -26 -65 -24 -2 3 19 15 46 28 54 25 60
34 33 48 -12 6 -32 3 -60 -9z"/>
<path d="M1655 2019 c-9 -13 -11 -11 53 -43 59 -30 131 -43 156 -29 14 8 9 12
-26 22 -24 7 -64 24 -90 37 -51 26 -83 30 -93 13z"/>
<path d="M1505 1990 c3 -5 8 -10 11 -10 2 0 4 5 4 10 0 6 -5 10 -11 10 -5 0
-7 -4 -4 -10z"/>
<path d="M1530 1990 c0 -5 4 -10 9 -10 6 0 13 5 16 10 3 6 -1 10 -9 10 -9 0
-16 -4 -16 -10z"/>
<path d="M1393 1975 c-37 -16 -53 -42 -53 -87 0 -69 54 -104 176 -115 65 -5
82 -11 103 -31 l25 -25 -28 -23 -27 -24 27 -12 c23 -11 28 -10 45 11 28 34 24
77 -9 111 -29 29 -47 34 -154 45 -90 10 -134 60 -92 106 11 12 25 16 53 12 42
-6 60 9 41 32 -15 19 -65 19 -107 0z"/>
<path d="M1561 1977 c-20 -24 -4 -38 41 -35 83 5 93 -77 13 -106 -19 -7 -18
-9 9 -23 74 -39 128 70 68 138 -33 37 -109 52 -131 26z"/>
<path d="M1516 1944 c-3 -9 -6 -36 -6 -60 0 -32 4 -44 15 -44 11 0 15 13 15
54 0 55 -12 80 -24 50z"/>
<path d="M1391 1766 c-7 -8 -11 -31 -9 -52 4 -45 37 -73 96 -81 30 -4 41 -10
40 -22 -3 -39 3 -71 13 -71 7 0 10 16 8 43 -4 41 -3 43 21 39 14 -3 31 -9 38
-15 17 -13 15 -44 -4 -55 -14 -8 -14 -10 2 -22 14 -13 19 -11 35 9 26 32 24
55 -9 92 -24 27 -37 32 -92 38 -100 11 -132 37 -94 76 18 18 18 20 -12 29 -13
4 -26 1 -33 -8z"/>
<path d="M1513 1720 c-2 -29 2 -40 13 -40 10 0 14 12 14 40 0 26 -5 40 -13 40
-8 0 -13 -15 -14 -40z"/>
<path d="M1434 1596 c-12 -49 5 -71 69 -90 12 -4 17 -16 17 -46 0 -27 4 -39
11 -35 6 4 9 23 8 44 -2 27 1 35 11 33 39 -9 51 -40 25 -62 -13 -10 -13 -15
-3 -21 20 -12 38 10 38 47 0 38 -29 64 -72 64 -43 0 -78 17 -78 39 0 11 5 23
11 27 8 4 7 9 -2 15 -22 14 -28 11 -35 -15z"/>
<path d="M1447 1494 c-14 -15 -6 -62 13 -79 11 -10 36 -21 56 -24 45 -7 64
-32 46 -61 -10 -16 -10 -20 1 -20 20 0 36 41 26 67 -5 15 -22 26 -51 33 -56
15 -70 28 -66 58 3 25 -11 39 -25 26z"/>
<path d="M1465 1370 c-9 -28 10 -56 45 -68 33 -12 42 -27 10 -19 -27 7 -44
-17 -36 -54 4 -20 0 -42 -10 -63 -9 -17 -20 -38 -24 -46 -3 -8 -34 -24 -67
-35 -33 -11 -68 -26 -77 -34 -15 -13 -15 -15 0 -32 27 -30 80 -39 224 -39 144
0 197 9 224 38 15 18 15 20 -1 34 -10 9 -41 23 -70 31 -70 21 -93 34 -93 55 0
10 -6 27 -14 37 -8 11 -11 34 -8 60 3 34 0 46 -18 63 -16 15 -21 28 -18 47 3
14 1 28 -3 31 -5 3 -9 -9 -9 -25 0 -17 -4 -31 -9 -31 -17 0 -30 26 -24 48 7
27 -13 30 -22 2z"/>
</g>
</svg>
